<svg width="50" height="50" viewBox="0 0 50 50" fill="none" xmlns="http://www.w3.org/2000/svg">
<path d="M36.4584 13.5417H36.4793M14.5834 4.16669H35.4168C41.1697 4.16669 45.8334 8.83039 45.8334 14.5834V35.4167C45.8334 41.1697 41.1697 45.8334 35.4168 45.8334H14.5834C8.83045 45.8334 4.16675 41.1697 4.16675 35.4167V14.5834C4.16675 8.83039 8.83045 4.16669 14.5834 4.16669ZM33.3334 23.6875C33.5905 25.4214 33.2944 27.1921 32.4871 28.748C31.6798 30.3038 30.4025 31.5655 28.8368 32.3535C27.2711 33.1416 25.4968 33.4158 23.7663 33.1374C22.0358 32.8589 20.4371 32.0419 19.1977 30.8024C17.9582 29.563 17.1412 27.9643 16.8627 26.2338C16.5843 24.5033 16.8586 22.729 17.6466 21.1633C18.4346 19.5976 19.6963 18.3203 21.2521 17.513C22.808 16.7057 24.5787 16.4096 26.3126 16.6667C28.0812 16.9289 29.7185 17.7531 30.9828 19.0173C32.247 20.2816 33.0712 21.9189 33.3334 23.6875Z" stroke="#F3F3F3" stroke-width="4" stroke-linecap="round" stroke-linejoin="round"/>
</svg>
