<svg width="60" height="60" viewBox="0 0 60 60" fill="none" xmlns="http://www.w3.org/2000/svg">
<circle cx="30" cy="25" r="24.5" stroke="white"/>
<path d="M30 0C25.0555 0 20.222 1.46622 16.1108 4.21326C11.9995 6.96029 8.79521 10.8648 6.90302 15.4329C5.01083 20.0011 4.51575 25.0277 5.48038 29.8773C6.44501 34.7268 8.82603 39.1814 12.3223 42.6777C15.8187 46.174 20.2732 48.555 25.1227 49.5196C29.9723 50.4843 34.9989 49.9892 39.5671 48.097C44.1352 46.2048 48.0397 43.0005 50.7867 38.8892C53.5338 34.778 55 29.9445 55 25C55 18.3696 52.3661 12.0107 47.6777 7.32233C42.9893 2.63392 36.6304 0 30 0ZM42.2813 17.125L38.1875 36.4687C37.875 37.8437 37.0625 38.1562 35.9063 37.5312L29.6563 32.9062L26.5313 35.8125C26.3841 36.0048 26.195 36.161 25.9784 36.2693C25.7618 36.3776 25.5234 36.4351 25.2813 36.4375L25.7188 30.1875L37.2813 19.7187C37.8125 19.2812 37.2813 19.0312 36.5313 19.4687L22.3438 28.375L16.0938 26.4375C14.75 26.0312 14.7188 25.0937 16.375 24.4687L40.4688 15.0937C41.6563 14.75 42.6563 15.4375 42.2813 17.125Z" fill="white"/>
</svg>
